<svg xmlns="http://www.w3.org/2000/svg" enable-background="new 0 0 3162 2250" viewBox="0 0 3162 2250" id="EducationalCareerChoices"><path fill="#585fea" d="M1408.1,1543.7c-37,0-67.2-30.1-67.2-67.2V367.3c0-37,30.1-67.2,67.2-67.2h560c37,0,67.2,30.1,67.2,67.2
				v1109.3c0,37-30.1,67.2-67.2,67.2h-560V1543.7z" class="color58b8ea svgShape"></path><path fill="#b8bbf2" d="M1968.1,326.7h-560c-22.3,0-40.6,18.3-40.6,40.6v996.8c0,22.3,18.3,40.6,40.6,40.6h560
				c22.3,0,40.6-18.3,40.6-40.6V367.3C2008.7,344.9,1990.4,326.7,1968.1,326.7z" class="colorb8e0f2 svgShape"></path><path fill="#141ee2" d="M1720,1517.1h-63.8c-6.1,0-11.1-4.9-11.1-11.1v-63.8c0-6.1,4.9-11.1,11.1-11.1h63.8
				c6.1,0,11.1,4.9,11.1,11.1v63.8C1731,1512.2,1726.1,1517.1,1720,1517.1z" class="color149be2 svgShape"></path><path fill="#ffffff" d="M1928.9 1487.5h-91.4c-4.4 0-8-3.6-8-8v-10.7c0-4.4 3.6-8 8-8h91.4c4.4 0 8 3.6 8 8v10.7C1936.8 1483.9 1933.3 1487.5 1928.9 1487.5zM1538.8 1487.5h-91.4c-4.4 0-8-3.6-8-8v-10.7c0-4.4 3.6-8 8-8h91.4c4.4 0 8 3.6 8 8v10.7C1546.7 1483.9 1543.2 1487.5 1538.8 1487.5z" enable-background="new" opacity=".25" class="colorffffff svgShape"></path><path fill="#edeefc" d="M1420.6,394.3v174.1c0,8,6.5,14.5,14.5,14.5H1941c8,0,14.5-6.5,14.5-14.5V394.3c0-8-6.5-14.5-14.5-14.5
					h-505.9C1427.1,379.8,1420.6,386.3,1420.6,394.3z" class="coloredf7fc svgShape"></path><radialGradient id="a" cx="1522.2" cy="481.3" r="93.4" gradientUnits="userSpaceOnUse"><stop offset=".744" stop-color="#e6e7fb" class="stopColore6f4fb svgShape"></stop><stop offset=".949" stop-color="#ebecfc" class="stopColorebf6fc svgShape"></stop><stop offset="1" stop-color="#edeefc" class="stopColoredf7fc svgShape"></stop></radialGradient><circle cx="1522.2" cy="481.3" r="93.4" fill="url(#a)"></circle><path fill="#5e64e5" d="M1674,556.3h97.5c2.9,0,5.3-2.4,5.3-5.3v-15.9c0-2.9-2.4-5.3-5.3-5.3H1674c-2.9,0-5.3,2.4-5.3,5.3V551
					C1668.7,553.9,1671.1,556.3,1674,556.3z M1803.5,535.1V551c0,2.9,2.4,5.3,5.3,5.3h69.9c2.9,0,5.3-2.4,5.3-5.3v-15.9
					c0-2.9-2.4-5.3-5.3-5.3h-69.9C1805.8,529.8,1803.5,532.1,1803.5,535.1z" class="colore55ebf svgShape"></path><radialGradient id="b" cx="1522.2" cy="1858.7" r="75" gradientTransform="matrix(1 0 0 -1 0 2340)" gradientUnits="userSpaceOnUse"><stop offset=".613" stop-color="#5158ec" class="stopColor51bbec svgShape"></stop><stop offset=".737" stop-color="#444cec" class="stopColor44b9ec svgShape"></stop><stop offset="1" stop-color="#2c35ec" class="stopColor2cb5ec svgShape"></stop></radialGradient><path fill="url(#b)" d="M1597.2,481.3c0,41.4-33.6,75-75,75s-75-33.6-75-75s33.6-75,75-75C1563.6,406.4,1597.2,439.9,1597.2,481.3z
					"></path><path fill="#ffffff" d="M1539.4,492c8.9-6,14.6-16.4,13.8-28.1c-1.1-15.4-13.6-27.8-29-28.7c-18.1-1.1-33.1,13.2-33.1,31
					c0,10.8,5.5,20.3,13.8,25.8c-13.4,5.6-24.2,17.4-29.9,32.6c-0.8,2-0.2,4.4,1.4,5.9c12,11.2,28.1,18.1,45.8,18.1
					c17.7,0,33.8-6.9,45.8-18.1c1.6-1.5,2.1-3.8,1.4-5.9C1563.7,509.4,1552.8,497.5,1539.4,492z" class="colorffffff svgShape"></path><path fill="#c6c8f8" d="M1771.1,503.2h96.2c1.6,0,3-1.3,3-3v-13c0-1.6-1.3-3-3-3h-96.2c-1.6,0-3,1.3-3,3v13
					C1768.1,501.9,1769.5,503.2,1771.1,503.2z M1821.9,461.3v-13c0-1.6-1.3-3-3-3h-79c-1.6,0-3,1.3-3,3v13c0,1.6,1.3,3,3,3h79
					C1820.6,464.3,1821.9,462.9,1821.9,461.3z M1670.8,406.4h-44.1c-1.6,0-3,1.3-3,3v13c0,1.6,1.3,3,3,3h44.1c1.6,0,3-1.3,3-3v-13
					C1673.8,407.7,1672.4,406.4,1670.8,406.4z M1679.7,503.2h65.5c1.6,0,3-1.3,3-3v-13c0-1.6-1.3-3-3-3h-65.5c-1.6,0-3,1.3-3,3v13
					C1676.7,501.9,1678.1,503.2,1679.7,503.2z M1858.8,406.4h-162.1c-1.6,0-3,1.3-3,3v13c0,1.6,1.3,3,3,3h162.1c1.6,0,3-1.3,3-3v-13
					C1861.8,407.7,1860.4,406.4,1858.8,406.4z M1844.8,464.3h81.2c1.6,0,3-1.3,3-3v-13c0-1.6-1.3-3-3-3h-81.2c-1.6,0-3,1.3-3,3v13
					C1841.9,462.9,1843.2,464.3,1844.8,464.3z M1893.1,503.2h32.9c1.6,0,3-1.3,3-3v-13c0-1.6-1.3-3-3-3h-32.9c-1.6,0-3,1.3-3,3v13
					C1890.2,501.9,1891.5,503.2,1893.1,503.2z M1881.7,409.3v13c0,1.6,1.3,3,3,3h41.4c1.6,0,3-1.3,3-3v-13c0-1.6-1.3-3-3-3h-41.4
					C1883,406.4,1881.7,407.7,1881.7,409.3z M1626.7,503.2h27.1c1.6,0,3-1.3,3-3v-13c0-1.6-1.3-3-3-3h-27.1c-1.6,0-3,1.3-3,3v13
					C1623.7,501.9,1625.1,503.2,1626.7,503.2z M1714.1,445.3h-87.4c-1.6,0-3,1.3-3,3v13c0,1.6,1.3,3,3,3h87.4c1.6,0,3-1.3,3-3v-13
					C1717.1,446.6,1715.8,445.3,1714.1,445.3z" class="colorc6e8f8 svgShape"></path><g fill="#000000" class="color000000 svgShape"><path fill="#edeefc" d="M1420.6,650.5v174.1c0,8,6.5,14.5,14.5,14.5H1941c8,0,14.5-6.5,14.5-14.5V650.5c0-8-6.5-14.5-14.5-14.5
					h-505.9C1427.1,636,1420.6,642.5,1420.6,650.5z" class="coloredf7fc svgShape"></path><radialGradient id="c" cx="1522.2" cy="737.6" r="93.4" gradientUnits="userSpaceOnUse"><stop offset=".744" stop-color="#e6e7fb" class="stopColore6f4fb svgShape"></stop><stop offset=".949" stop-color="#ebecfc" class="stopColorebf6fc svgShape"></stop><stop offset="1" stop-color="#edeefc" class="stopColoredf7fc svgShape"></stop></radialGradient><circle cx="1522.2" cy="737.6" r="93.4" fill="url(#c)"></circle><path fill="#5e64e5" d="M1674,812.5h97.5c2.9,0,5.3-2.4,5.3-5.3v-15.9c0-2.9-2.4-5.3-5.3-5.3H1674c-2.9,0-5.3,2.4-5.3,5.3v15.9
					C1668.7,810.2,1671.1,812.5,1674,812.5z M1803.5,791.3v15.9c0,2.9,2.4,5.3,5.3,5.3h69.9c2.9,0,5.3-2.4,5.3-5.3v-15.9
					c0-2.9-2.4-5.3-5.3-5.3h-69.9C1805.8,786,1803.5,788.4,1803.5,791.3z" class="colore55ebf svgShape"></path><radialGradient id="d" cx="1522.2" cy="1602.4" r="75" gradientTransform="matrix(1 0 0 -1 0 2340)" gradientUnits="userSpaceOnUse"><stop offset=".613" stop-color="#5158ec" class="stopColor51bbec svgShape"></stop><stop offset=".737" stop-color="#444cec" class="stopColor44b9ec svgShape"></stop><stop offset="1" stop-color="#2c35ec" class="stopColor2cb5ec svgShape"></stop></radialGradient><path fill="url(#d)" d="M1597.2,737.6c0,41.4-33.6,75-75,75s-75-33.6-75-75s33.6-75,75-75S1597.2,696.2,1597.2,737.6z"></path><path fill="#ffffff" d="M1539.4,748.2c8.9-6,14.6-16.4,13.8-28.1c-1.1-15.4-13.6-27.8-29-28.7c-18.1-1.1-33.1,13.2-33.1,31
					c0,10.8,5.5,20.3,13.8,25.8c-13.4,5.6-24.2,17.4-29.9,32.6c-0.8,2-0.2,4.4,1.4,5.9c12,11.2,28.1,18.1,45.8,18.1
					c17.7,0,33.8-6.9,45.8-18.1c1.6-1.5,2.1-3.8,1.4-5.9C1563.7,765.6,1552.8,753.8,1539.4,748.2z" class="colorffffff svgShape"></path><path fill="#c6c8f8" d="M1771.1,759.4h96.2c1.6,0,3-1.3,3-3v-13c0-1.6-1.3-3-3-3h-96.2c-1.6,0-3,1.3-3,3v13
					C1768.1,758.1,1769.5,759.4,1771.1,759.4z M1821.9,717.5v-13c0-1.6-1.3-3-3-3h-79c-1.6,0-3,1.3-3,3v13c0,1.6,1.3,3,3,3h79
					C1820.6,720.5,1821.9,719.2,1821.9,717.5z M1670.8,662.6h-44.1c-1.6,0-3,1.3-3,3v13c0,1.6,1.3,3,3,3h44.1c1.6,0,3-1.3,3-3v-13
					C1673.8,663.9,1672.4,662.6,1670.8,662.6z M1679.7,759.4h65.5c1.6,0,3-1.3,3-3v-13c0-1.6-1.3-3-3-3h-65.5c-1.6,0-3,1.3-3,3v13
					C1676.7,758.1,1678.1,759.4,1679.7,759.4z M1858.8,662.6h-162.1c-1.6,0-3,1.3-3,3v13c0,1.6,1.3,3,3,3h162.1c1.6,0,3-1.3,3-3v-13
					C1861.8,663.9,1860.4,662.6,1858.8,662.6z M1844.8,720.5h81.2c1.6,0,3-1.3,3-3v-13c0-1.6-1.3-3-3-3h-81.2c-1.6,0-3,1.3-3,3v13
					C1841.9,719.2,1843.2,720.5,1844.8,720.5z M1893.1,759.4h32.9c1.6,0,3-1.3,3-3v-13c0-1.6-1.3-3-3-3h-32.9c-1.6,0-3,1.3-3,3v13
					C1890.2,758.1,1891.5,759.4,1893.1,759.4z M1881.7,665.6v13c0,1.6,1.3,3,3,3h41.4c1.6,0,3-1.3,3-3v-13c0-1.6-1.3-3-3-3h-41.4
					C1883,662.6,1881.7,663.9,1881.7,665.6z M1626.7,759.4h27.1c1.6,0,3-1.3,3-3v-13c0-1.6-1.3-3-3-3h-27.1c-1.6,0-3,1.3-3,3v13
					C1623.7,758.1,1625.1,759.4,1626.7,759.4z M1714.1,701.5h-87.4c-1.6,0-3,1.3-3,3v13c0,1.6,1.3,3,3,3h87.4c1.6,0,3-1.3,3-3v-13
					C1717.1,702.8,1715.8,701.5,1714.1,701.5z" class="colorc6e8f8 svgShape"></path></g><g fill="#000000" class="color000000 svgShape"><path fill="#edeefc" d="M1420.6,906.7v174.1c0,8,6.5,14.5,14.5,14.5H1941c8,0,14.5-6.5,14.5-14.5V906.7c0-8-6.5-14.5-14.5-14.5
					h-505.9C1427.1,892.2,1420.6,898.7,1420.6,906.7z" class="coloredf7fc svgShape"></path><radialGradient id="e" cx="1522.2" cy="993.8" r="93.4" gradientUnits="userSpaceOnUse"><stop offset=".744" stop-color="#e6e7fb" class="stopColore6f4fb svgShape"></stop><stop offset=".949" stop-color="#ebecfc" class="stopColorebf6fc svgShape"></stop><stop offset="1" stop-color="#edeefc" class="stopColoredf7fc svgShape"></stop></radialGradient><circle cx="1522.2" cy="993.8" r="93.4" fill="url(#e)"></circle><path fill="#5e64e5" d="M1674,1068.8h97.5c2.9,0,5.3-2.4,5.3-5.3v-15.9c0-2.9-2.4-5.3-5.3-5.3H1674c-2.9,0-5.3,2.4-5.3,5.3v15.9
					C1668.7,1066.4,1671.1,1068.8,1674,1068.8z M1803.5,1047.5v15.9c0,2.9,2.4,5.3,5.3,5.3h69.9c2.9,0,5.3-2.4,5.3-5.3v-15.9
					c0-2.9-2.4-5.3-5.3-5.3h-69.9C1805.8,1042.2,1803.5,1044.6,1803.5,1047.5z" class="colore55ebf svgShape"></path><radialGradient id="f" cx="1522.2" cy="1346.2" r="75" gradientTransform="matrix(1 0 0 -1 0 2340)" gradientUnits="userSpaceOnUse"><stop offset=".613" stop-color="#5158ec" class="stopColor51bbec svgShape"></stop><stop offset=".737" stop-color="#444cec" class="stopColor44b9ec svgShape"></stop><stop offset="1" stop-color="#2c35ec" class="stopColor2cb5ec svgShape"></stop></radialGradient><path fill="url(#f)" d="M1597.2,993.8c0,41.4-33.6,75-75,75s-75-33.6-75-75s33.6-75,75-75C1563.6,918.8,1597.2,952.4,1597.2,993.8
					z"></path><path fill="#ffffff" d="M1539.4,1004.4c8.9-6,14.6-16.4,13.8-28.1c-1.1-15.4-13.6-27.8-29-28.7c-18.1-1.1-33.1,13.2-33.1,31
					c0,10.8,5.5,20.3,13.8,25.8c-13.4,5.6-24.2,17.4-29.9,32.6c-0.8,2-0.2,4.4,1.4,5.9c12,11.2,28.1,18.1,45.8,18.1
					c17.7,0,33.8-6.9,45.8-18.1c1.6-1.5,2.1-3.8,1.4-5.9C1563.7,1021.9,1552.8,1010,1539.4,1004.4z" class="colorffffff svgShape"></path><path fill="#c6c8f8" d="M1771.1,1015.6h96.2c1.6,0,3-1.3,3-3v-13c0-1.6-1.3-3-3-3h-96.2c-1.6,0-3,1.3-3,3v13
					C1768.1,1014.3,1769.5,1015.6,1771.1,1015.6z M1821.9,973.7v-13c0-1.6-1.3-3-3-3h-79c-1.6,0-3,1.3-3,3v13c0,1.6,1.3,3,3,3h79
					C1820.6,976.7,1821.9,975.4,1821.9,973.7z M1670.8,918.8h-44.1c-1.6,0-3,1.3-3,3v13c0,1.6,1.3,3,3,3h44.1c1.6,0,3-1.3,3-3v-13
					C1673.8,920.1,1672.4,918.8,1670.8,918.8z M1679.7,1015.6h65.5c1.6,0,3-1.3,3-3v-13c0-1.6-1.3-3-3-3h-65.5c-1.6,0-3,1.3-3,3v13
					C1676.7,1014.3,1678.1,1015.6,1679.7,1015.6z M1858.8,918.8h-162.1c-1.6,0-3,1.3-3,3v13c0,1.6,1.3,3,3,3h162.1c1.6,0,3-1.3,3-3
					v-13C1861.8,920.1,1860.4,918.8,1858.8,918.8z M1844.8,976.7h81.2c1.6,0,3-1.3,3-3v-13c0-1.6-1.3-3-3-3h-81.2c-1.6,0-3,1.3-3,3
					v13C1841.9,975.4,1843.2,976.7,1844.8,976.7z M1893.1,1015.6h32.9c1.6,0,3-1.3,3-3v-13c0-1.6-1.3-3-3-3h-32.9c-1.6,0-3,1.3-3,3
					v13C1890.2,1014.3,1891.5,1015.6,1893.1,1015.6z M1881.7,921.8v13c0,1.6,1.3,3,3,3h41.4c1.6,0,3-1.3,3-3v-13c0-1.6-1.3-3-3-3
					h-41.4C1883,918.8,1881.7,920.1,1881.7,921.8z M1626.7,1015.6h27.1c1.6,0,3-1.3,3-3v-13c0-1.6-1.3-3-3-3h-27.1c-1.6,0-3,1.3-3,3
					v13C1623.7,1014.3,1625.1,1015.6,1626.7,1015.6z M1714.1,957.7h-87.4c-1.6,0-3,1.3-3,3v13c0,1.6,1.3,3,3,3h87.4c1.6,0,3-1.3,3-3
					v-13C1717.1,959.1,1715.8,957.7,1714.1,957.7z" class="colorc6e8f8 svgShape"></path></g><g fill="#000000" class="color000000 svgShape"><path fill="#edeefc" d="M1420.6,1163v174.1c0,8,6.5,14.5,14.5,14.5H1941c8,0,14.5-6.5,14.5-14.5V1163c0-8-6.5-14.5-14.5-14.5
					h-505.9C1427.1,1148.5,1420.6,1155,1420.6,1163z" class="coloredf7fc svgShape"></path><radialGradient id="g" cx="1522.2" cy="1250" r="93.4" gradientUnits="userSpaceOnUse"><stop offset=".744" stop-color="#e6e7fb" class="stopColore6f4fb svgShape"></stop><stop offset=".949" stop-color="#ebecfc" class="stopColorebf6fc svgShape"></stop><stop offset="1" stop-color="#edeefc" class="stopColoredf7fc svgShape"></stop></radialGradient><circle cx="1522.2" cy="1250" r="93.4" fill="url(#g)"></circle><path fill="#5e64e5" d="M1674,1325h97.5c2.9,0,5.3-2.4,5.3-5.3v-15.9c0-2.9-2.4-5.3-5.3-5.3H1674c-2.9,0-5.3,2.4-5.3,5.3v15.9
					C1668.7,1322.6,1671.1,1325,1674,1325z M1803.5,1303.7v15.9c0,2.9,2.4,5.3,5.3,5.3h69.9c2.9,0,5.3-2.4,5.3-5.3v-15.9
					c0-2.9-2.4-5.3-5.3-5.3h-69.9C1805.8,1298.4,1803.5,1300.8,1803.5,1303.7z" class="colore55ebf svgShape"></path><radialGradient id="h" cx="1522.2" cy="1090" r="75" gradientTransform="matrix(1 0 0 -1 0 2340)" gradientUnits="userSpaceOnUse"><stop offset=".613" stop-color="#5158ec" class="stopColor51bbec svgShape"></stop><stop offset=".737" stop-color="#444cec" class="stopColor44b9ec svgShape"></stop><stop offset="1" stop-color="#2c35ec" class="stopColor2cb5ec svgShape"></stop></radialGradient><path fill="url(#h)" d="M1597.2,1250c0,41.4-33.6,75-75,75s-75-33.6-75-75s33.6-75,75-75S1597.2,1208.6,1597.2,1250z"></path><path fill="#ffffff" d="M1539.4,1260.6c8.9-6,14.6-16.4,13.8-28.1c-1.1-15.4-13.6-27.8-29-28.7c-18.1-1.1-33.1,13.2-33.1,31
					c0,10.8,5.5,20.3,13.8,25.8c-13.4,5.6-24.2,17.4-29.9,32.6c-0.8,2-0.2,4.4,1.4,5.9c12,11.2,28.1,18.1,45.8,18.1
					c17.7,0,33.8-6.9,45.8-18.1c1.6-1.5,2.1-3.8,1.4-5.9C1563.7,1278.1,1552.8,1266.2,1539.4,1260.6z" class="colorffffff svgShape"></path><path fill="#c6c8f8" d="M1771.1,1271.9h96.2c1.6,0,3-1.3,3-3v-13c0-1.6-1.3-3-3-3h-96.2c-1.6,0-3,1.3-3,3v13
					C1768.1,1270.5,1769.5,1271.9,1771.1,1271.9z M1821.9,1230v-13c0-1.6-1.3-3-3-3h-79c-1.6,0-3,1.3-3,3v13c0,1.6,1.3,3,3,3h79
					C1820.6,1232.9,1821.9,1231.6,1821.9,1230z M1670.8,1175h-44.1c-1.6,0-3,1.3-3,3v13c0,1.6,1.3,3,3,3h44.1c1.6,0,3-1.3,3-3v-13
					C1673.8,1176.4,1672.4,1175,1670.8,1175z M1679.7,1271.9h65.5c1.6,0,3-1.3,3-3v-13c0-1.6-1.3-3-3-3h-65.5c-1.6,0-3,1.3-3,3v13
					C1676.7,1270.5,1678.1,1271.9,1679.7,1271.9z M1858.8,1175h-162.1c-1.6,0-3,1.3-3,3v13c0,1.6,1.3,3,3,3h162.1c1.6,0,3-1.3,3-3
					v-13C1861.8,1176.4,1860.4,1175,1858.8,1175z M1844.8,1232.9h81.2c1.6,0,3-1.3,3-3v-13c0-1.6-1.3-3-3-3h-81.2c-1.6,0-3,1.3-3,3
					v13C1841.9,1231.6,1843.2,1232.9,1844.8,1232.9z M1893.1,1271.9h32.9c1.6,0,3-1.3,3-3v-13c0-1.6-1.3-3-3-3h-32.9
					c-1.6,0-3,1.3-3,3v13C1890.2,1270.5,1891.5,1271.9,1893.1,1271.9z M1881.7,1178v13c0,1.6,1.3,3,3,3h41.4c1.6,0,3-1.3,3-3v-13
					c0-1.6-1.3-3-3-3h-41.4C1883,1175,1881.7,1176.4,1881.7,1178z M1626.7,1271.9h27.1c1.6,0,3-1.3,3-3v-13c0-1.6-1.3-3-3-3h-27.1
					c-1.6,0-3,1.3-3,3v13C1623.7,1270.5,1625.1,1271.9,1626.7,1271.9z M1714.1,1213.9h-87.4c-1.6,0-3,1.3-3,3v13c0,1.6,1.3,3,3,3
					h87.4c1.6,0,3-1.3,3-3v-13C1717.1,1215.3,1715.8,1213.9,1714.1,1213.9z" class="colorc6e8f8 svgShape"></path></g><g fill="#000000" class="color000000 svgShape"><linearGradient id="i" x1="2192.25" x2="2192.25" y1="870.1" y2="390.1" gradientTransform="matrix(1 0 0 -1 0 2340)" gradientUnits="userSpaceOnUse"><stop offset=".233" stop-color="#5e64e5" class="stopColore55ebf svgShape"></stop><stop offset="1" stop-color="#323ade" class="stopColorde32af svgShape"></stop></linearGradient><path fill="url(#i)" d="M2267.6,1479c0-5-4.1-9.1-9.1-9.1H2126c-5,0-9.1,4.1-9.1,9.1v461.8c0,5,4.1,9.1,9.1,9.1h132.5
				c5,0,9.1-4.1,9.1-9.1V1479z"></path><linearGradient id="j" x1="2390.45" x2="2390.45" y1="775.1" y2="390" gradientTransform="matrix(1 0 0 -1 0 2340)" gradientUnits="userSpaceOnUse"><stop offset=".233" stop-color="#5e64e5" class="stopColore55ebf svgShape"></stop><stop offset="1" stop-color="#323ade" class="stopColorde32af svgShape"></stop></linearGradient><path fill="url(#j)" d="M2465.8,1574c0-5-4.1-9.1-9.1-9.1h-132.5c-5,0-9.1,4.1-9.1,9.1v366.9c0,5,4.1,9.1,9.1,9.1h132.5
				c5,0,9.1-4.1,9.1-9.1V1574z"></path><linearGradient id="k" x1="2588.55" x2="2588.55" y1="654.5" y2="390.1" gradientTransform="matrix(1 0 0 -1 0 2340)" gradientUnits="userSpaceOnUse"><stop offset=".233" stop-color="#5e64e5" class="stopColore55ebf svgShape"></stop><stop offset="1" stop-color="#323ade" class="stopColorde32af svgShape"></stop></linearGradient><path fill="url(#k)" d="M2663.9,1694.6c0-5-4.1-9.1-9.1-9.1h-132.5c-5,0-9.1,4.1-9.1,9.1v246.2c0,5,4.1,9.1,9.1,9.1h132.5
				c5,0,9.1-4.1,9.1-9.1V1694.6z"></path><linearGradient id="l" x1="2786.65" x2="2786.65" y1="536.7" y2="390.1" gradientTransform="matrix(1 0 0 -1 0 2340)" gradientUnits="userSpaceOnUse"><stop offset=".233" stop-color="#5e64e5" class="stopColore55ebf svgShape"></stop><stop offset="1" stop-color="#323ade" class="stopColorde32af svgShape"></stop></linearGradient><path fill="url(#l)" d="M2862,1812.4c0-5-4.1-9.1-9.1-9.1h-132.5c-5,0-9.1,4.1-9.1,9.1v128.4c0,5,4.1,9.1,9.1,9.1h132.5
				c5,0,9.1-4.1,9.1-9.1V1812.4z"></path></g><g fill="#000000" class="color000000 svgShape"><linearGradient id="m" x1="1643.35" x2="1643.35" y1="495.341" y2="414.532" gradientTransform="matrix(1 0 0 -1 0 2340)" gradientUnits="userSpaceOnUse"><stop offset="0" stop-color="#464ee8" class="stopColor46b1e8 svgShape"></stop><stop offset="1" stop-color="#2d36e5" class="stopColor2da7e5 svgShape"></stop></linearGradient><path fill="url(#m)" d="M1642.9,1843.2h-16.4c9.6,0,17.3,7.8,17.3,17.3v48.7c0,9.6-7.8,17.3-17.3,17.3h16.4
				c9.6,0,17.3-7.8,17.3-17.3v-48.7C1660.2,1851,1652.4,1843.2,1642.9,1843.2z"></path><linearGradient id="n" x1="1403.5" x2="1403.5" y1="390.404" y2="515.647" gradientTransform="matrix(1 0 0 -1 0 2340)" gradientUnits="userSpaceOnUse"><stop offset=".004" stop-color="#000346" class="stopColor000046 svgShape"></stop><stop offset="1" stop-color="#00045c" class="stopColor00005c svgShape"></stop></linearGradient><path fill="url(#n)" d="M1703.4,1949.6c-0.4-0.1-0.7-0.1-1.1-0.2c-1.6-0.3-3.1-0.8-4.5-1.4c-0.5-0.2-1.1-0.5-1.6-0.7
				c-5.2-2.7-9.3-7.3-11.3-12.9c-0.1-0.4-0.3-0.8-0.4-1.2c-0.2-0.8-0.5-1.7-0.6-2.5c-0.2-1.3-0.4-2.6-0.4-4v-83.6c0-1,0.1-2,0.2-3
				c0.2-1.6,0.6-3.2,1.1-4.7c3-8.4,10.6-14.6,19.8-15.4c0.7-0.1,1.4-0.1,2.1-0.1h-531l0,0h-52.2c-12.8,0-23.2,10.4-23.2,23.2v83.6
				c0,12.8,10.4,23.2,23.2,23.2h52.2l0,0h530.8c-0.1,0-0.2,0-0.3,0C1705.3,1949.9,1704.3,1949.8,1703.4,1949.6z"></path><linearGradient id="o" x1="1959.544" x2="1959.544" y1="393.468" y2="516.347" gradientTransform="matrix(1 0 0 -1 0 2340)" gradientUnits="userSpaceOnUse"><stop offset="0"></stop><stop offset="1"></stop></linearGradient><path fill="url(#o)" d="M1684.9,1835.3c3.2-9,11.8-15.5,21.9-15.5h52.2h468.8c4.3,0,7.7,3.5,7.7,7.7c0,4.3-3.5,7.7-7.7,7.7H1759
				h-20.5h-31.7c-4.3,0-7.7,3.5-7.7,7.7v83.6c0,4.3,3.5,7.7,7.7,7.7h31.7h20.5h468.8c4.3,0,7.7,3.5,7.7,7.7c0,4.3-3.5,7.7-7.7,7.7
				H1759h-52.3c-10-0.1-18.5-6.5-21.7-15.5c-0.9-2.4-1.4-5-1.4-7.7v-83.6C1683.5,1840.4,1684,1837.8,1684.9,1835.3z"></path><linearGradient id="p" x1="1700.426" x2="1968.237" y1="455.2" y2="455.2" gradientTransform="matrix(1 0 0 -1 0 2340)" gradientUnits="userSpaceOnUse"><stop offset=".004" stop-color="#adaecb" class="stopColoradadcb svgShape"></stop><stop offset="1" stop-color="#bdbed5" class="stopColorbdbdd5 svgShape"></stop></linearGradient><path fill="url(#p)" d="M2203.8,1928.7c-7.2-9.5-11.9-25.6-11.9-43.8c0-18.2,4.7-34.2,11.9-43.8c1.7-2.3,3.6-4.3,5.7-5.8h-502.7
				c-4.3,0-7.7,3.5-7.7,7.7v83.6c0,4.3,3.5,7.7,7.7,7.7h502.7C2207.5,1932.9,2205.6,1931,2203.8,1928.7z"></path><linearGradient id="q" x1="1699" x2="2059.249" y1="455.1" y2="455.1" gradientTransform="matrix(1 0 0 -1 0 2340)" gradientUnits="userSpaceOnUse"><stop offset=".004" stop-color="#8f91ba" class="stopColor9a9abf svgShape"></stop><stop offset="1" stop-color="#acadca" class="stopColoracacca svgShape"></stop></linearGradient><path fill="url(#q)" d="M2192.4,1894.8H1699v1.6h493.6C2192.5,1895.9,2192.5,1895.4,2192.4,1894.8z M2193.4,1902H1699v1.6h494.7
				C2193.6,1903,2193.5,1902.5,2193.4,1902z M2192,1880.5h-493v1.6h493C2192,1881.6,2192,1881,2192,1880.5z M2192,1887.7h-493v1.6
				h493C2192,1888.7,2192,1888.2,2192,1887.7z M2200.5,1923.4H1699v1.6h502.4C2201.1,1924.5,2200.8,1924,2200.5,1923.4z
				 M2197.2,1916.3H1699v1.6h498.8C2197.6,1917.3,2197.4,1916.8,2197.2,1916.3z M2206.8,1837.6h-505.5c-0.5,0.5-0.9,1-1.2,1.6h505.3
				C2205.9,1838.6,2206.4,1838.1,2206.8,1837.6z M2192.6,1873.4H1699v1.6h493.4C2192.5,1874.4,2192.5,1873.9,2192.6,1873.4z
				 M1700.1,1930.6c0.3,0.6,0.7,1.1,1.2,1.6h505.6c-0.5-0.5-1-1-1.5-1.6H1700.1z M2201.4,1844.8H1699v1.6h501.5
				C2200.8,1845.8,2201.1,1845.3,2201.4,1844.8z M2193.7,1866.2H1699v1.6h494.4C2193.5,1867.2,2193.6,1866.7,2193.7,1866.2z
				 M2197.8,1851.9H1699v1.6h498.2C2197.4,1852.9,2197.6,1852.4,2197.8,1851.9z M2195.4,1859.1H1699v1.6h496
				C2195.1,1860.1,2195.2,1859.6,2195.4,1859.1z M2195,1909.1h-496v1.6h496.4C2195.2,1910.2,2195.1,1909.7,2195,1909.1z"></path><linearGradient id="r" x1="1898.55" x2="1898.55" y1="794.255" y2="674.556" gradientTransform="matrix(1 0 0 -1 0 2340)" gradientUnits="userSpaceOnUse"><stop offset="0" stop-color="#b9bcff" class="stopColorb9eaff svgShape"></stop><stop offset="1" stop-color="#a6aaff" class="stopColora6e5ff svgShape"></stop></linearGradient><path fill="url(#r)" d="M2188.4,1654.6h-524.2l0,0c-26.8,0-48.5-21.7-48.5-48.5s21.7-48.5,48.5-48.5l0,0h524.2
				c3.8,0,6.9-3.1,6.9-6.9s-3.1-6.9-6.9-6.9h-524.2c-34.4,0-62.4,27.9-62.4,62.4s27.9,62.4,62.4,62.4h524.2c3.8,0,6.9-3.1,6.9-6.9
				C2195.3,1657.7,2192.2,1654.6,2188.4,1654.6z"></path><linearGradient id="s" x1="1402.4" x2="1402.4" y1="791.766" y2="675.591" gradientTransform="matrix(1 0 0 -1 0 2340)" gradientUnits="userSpaceOnUse"><stop offset="0" stop-color="#caccff" class="stopColorcaefff svgShape"></stop><stop offset="1" stop-color="#bcbfff" class="stopColorbcebff svgShape"></stop></linearGradient><path fill="url(#s)" d="M1601.8,1606c0-34.4,27.9-62.4,62.4-62.4H1203l0,0h-2.9v0.1c-33.1,1.5-59.5,28.8-59.5,62.3
				c0,32.9,25.4,59.8,57.6,62.2v0.2h465.9C1629.7,1668.4,1601.8,1640.5,1601.8,1606z"></path><linearGradient id="t" x1="1617.894" x2="1940.64" y1="734" y2="734" gradientTransform="matrix(1 0 0 -1 0 2340)" gradientUnits="userSpaceOnUse"><stop offset="0" stop-color="#dedfff" class="stopColordef5ff svgShape"></stop><stop offset="1" stop-color="#e5e6ff" class="stopColore5f7ff svgShape"></stop></linearGradient><path fill="url(#t)" d="M2172.2,1648.2c-6.9-9.2-11.5-24.7-11.5-42.2s4.5-33,11.5-42.2c2-2.7,4.2-4.8,6.6-6.3h-514.6
				c-26.8,0-48.5,21.7-48.5,48.5s21.7,48.5,48.5,48.5l0,0h514.6C2176.4,1653,2174.2,1650.9,2172.2,1648.2z"></path><linearGradient id="u" x1="2152.915" x2="1625.553" y1="733.95" y2="733.95" gradientTransform="matrix(1 0 0 -1 0 2340)" gradientUnits="userSpaceOnUse"><stop offset="0" stop-color="#dddfff" class="stopColorddf5ff svgShape"></stop><stop offset="1" stop-color="#d2d4ff" class="stopColord2f3ff svgShape"></stop></linearGradient><path fill="url(#u)" d="M2161.2,1615.6h-544.6c0.1,0.5,0.2,1,0.3,1.5h544.4C2161.3,1616.6,2161.2,1616.1,2161.2,1615.6z
				 M2160.7,1608.7h-545c0,0.5,0.1,1,0.1,1.5h545C2160.8,1609.7,2160.8,1609.2,2160.7,1608.7z M2161.3,1595h-544.4
				c-0.1,0.5-0.2,1-0.3,1.5h544.6C2161.2,1596,2161.3,1595.5,2161.3,1595z M2163.6,1629.4h-542c0.3,0.5,0.6,1,0.9,1.5H2164
				C2163.9,1630.4,2163.8,1629.9,2163.6,1629.4z M2165.8,1636.3h-539.6c0.4,0.5,0.8,1,1.2,1.5h538.9
				C2166.2,1637.3,2166,1636.8,2165.8,1636.3z M2162.1,1622.5h-543.6c0.2,0.5,0.4,1,0.6,1.5h543.3
				C2162.3,1623.5,2162.2,1623,2162.1,1622.5z M2175.1,1560.5h-527.7c-1.2,0.4-2.4,1-3.6,1.5h529.9
				C2174.1,1561.5,2174.6,1561,2175.1,1560.5z M2169.8,1567.4h-535c-0.6,0.5-1.3,1-1.9,1.5h536
				C2169.2,1568.4,2169.5,1567.9,2169.8,1567.4z M2162.4,1588.1h-543.3c-0.2,0.5-0.4,1-0.6,1.5h543.6
				C2162.2,1589.1,2162.3,1588.6,2162.4,1588.1z M2166.4,1574.3h-538.9c-0.4,0.5-0.8,1-1.2,1.5h539.6
				C2166,1575.3,2166.2,1574.8,2166.4,1574.3z M2164,1581.2h-541.5c-0.3,0.5-0.6,1-0.9,1.5h542
				C2163.8,1582.2,2163.9,1581.7,2164,1581.2z M2160.8,1601.9h-545c0,0.5-0.1,1-0.1,1.5h545
				C2160.8,1602.9,2160.8,1602.4,2160.8,1601.9z M2169,1643.2h-536c0.6,0.5,1.2,1,1.9,1.5h535
				C2169.5,1644.2,2169.2,1643.7,2169,1643.2z M2173.7,1650.1h-529.9c1.2,0.5,2.4,1,3.6,1.5h527.7
				C2174.6,1651.1,2174.1,1650.6,2173.7,1650.1z"></path><linearGradient id="v" x1="1733.553" x2="1215.012" y1="595.9" y2="595.9" gradientTransform="matrix(1 0 0 -1 0 2340)" gradientUnits="userSpaceOnUse"><stop offset="0" stop-color="#5a61ec" class="stopColor5abbec svgShape"></stop><stop offset="1" stop-color="#a8acf5" class="stopColora8daf5 svgShape"></stop></linearGradient><path fill="url(#v)" d="M1720.8,1681.6h-31.2h-494.1c10.3,13.6,17,36.6,17,62.5c0,26-6.7,48.9-17,62.5h494.1h31.2
					c10.3-13.6,17-36.6,17-62.5S1731.1,1695.2,1720.8,1681.6z"></path><linearGradient id="w" x1="2159.809" x2="1887.887" y1="595.9" y2="595.9" gradientTransform="matrix(1 0 0 -1 0 2340)" gradientUnits="userSpaceOnUse"><stop offset="0" stop-color="#9599f3" class="stopColor95d3f3 svgShape"></stop><stop offset="1" stop-color="#acaff5" class="stopColoracdcf5 svgShape"></stop></linearGradient><path fill="url(#w)" d="M2152.7,1681.6h-431.9c10.3,13.6,17,36.6,17,62.5c0,26-6.7,48.9-17,62.5h431.9c6.8,0,12.3-5.5,12.3-12.3
					v-100.6C2165,1687.1,2159.5,1681.6,2152.7,1681.6z"></path><path fill="#585fea" d="M2152.7,1668.4h-31.2h-432c-3.6,0-6.6,3-6.6,6.6s3,6.6,6.6,6.6h31.2h400.7h31.2c6.8,0,12.3,5.5,12.3,12.3
					v100.6c0,6.8-5.5,12.3-12.3,12.3h-31.2h-400.7h-31.2c-3.6,0-6.6,3-6.6,6.6s3,6.6,6.6,6.6l0,0h432h31.2c14,0,25.4-11.4,25.4-25.4
					V1694C2178.2,1679.8,2166.8,1668.4,2152.7,1668.4z" class="color58b8ea svgShape"></path><linearGradient id="x" x1="1691.426" x2="1209.482" y1="595.85" y2="595.85" gradientTransform="matrix(1 0 0 -1 0 2340)" gradientUnits="userSpaceOnUse"><stop offset="0" stop-color="#000ada" class="stopColor007dda svgShape"></stop><stop offset="1" stop-color="#555cea" class="stopColor55b7ea svgShape"></stop></linearGradient><path fill="url(#x)" d="M1683,1675c0-3.6,3-6.6,6.6-6.6h-525.3c-3.6,0-6.6,3-6.6,6.6s3,6.6,6.6,6.6h525.3
					C1686,1681.6,1683,1678.6,1683,1675z M1689.6,1806.7h-525.3c-3.6,0-6.6,3-6.6,6.6s3,6.6,6.6,6.6h525.3l0,0c-3.6,0-6.6-3-6.6-6.6
					C1683,1809.6,1686,1806.7,1689.6,1806.7z"></path><linearGradient id="y" x1="1724.3" x2="2165" y1="595.85" y2="595.85" gradientTransform="matrix(1 0 0 -1 0 2340)" gradientUnits="userSpaceOnUse"><stop offset="0" stop-color="#9397f2" class="stopColor93d1f2 svgShape"></stop><stop offset="1" stop-color="#757bef" class="stopColor75c5ef svgShape"></stop></linearGradient><path fill="url(#y)" d="M1735.3,1770.8H2165v-2.2h-429.2C1735.6,1769.3,1735.5,1770.1,1735.3,1770.8z M1724.3,1801.4h438.4
					c0.5-0.7,0.9-1.4,1.2-2.2h-438.4C1725.2,1800,1724.7,1800.7,1724.3,1801.4z M1736.9,1760.6H2165v-2.2h-427.8
					C1737.1,1759.1,1737,1759.8,1736.9,1760.6z M1729.4,1791.2H2165v-2.2h-434.8C1729.9,1789.8,1729.7,1790.5,1729.4,1791.2z
					 M1732.9,1781H2165v-2.2h-431.5C1733.3,1779.5,1733.1,1780.3,1732.9,1781z M1733.5,1709.5H2165v-2.2h-432.1
					C1733.1,1708,1733.3,1708.7,1733.5,1709.5z M1735.7,1719.7H2165v-2.2h-429.7C1735.5,1718.2,1735.6,1719,1735.7,1719.7z
					 M1737.1,1729.9H2165v-2.2h-428.1C1737,1728.4,1737.1,1729.2,1737.1,1729.9z M1737.8,1740.1H2165v-2.2h-427.3
					C1737.7,1738.7,1737.7,1739.4,1737.8,1740.1z M1737.7,1750.4H2165v-2.2h-427.2C1737.7,1748.9,1737.7,1749.6,1737.7,1750.4z
					 M1729.4,1697.1c0.3,0.7,0.6,1.5,0.9,2.2H2165v-2.2H1729.4z M2164,1689.1c-0.3-0.8-0.8-1.5-1.2-2.2h-438.4
					c0.4,0.7,0.8,1.5,1.3,2.2H2164z"></path><linearGradient id="z" x1="1733.936" x2="1213.157" y1="595.854" y2="595.854" gradientTransform="matrix(1 0 0 -1 0 2340)" gradientUnits="userSpaceOnUse"><stop offset="0" stop-color="#2a33e7" class="stopColor2aa6e7 svgShape"></stop><stop offset="1" stop-color="#8e93f2" class="stopColor8ecff2 svgShape"></stop></linearGradient><path fill="url(#z)" d="M1204.1,1791.2h525.3c0.3-0.7,0.6-1.5,0.9-2.2H1205C1204.6,1789.8,1204.4,1790.5,1204.1,1791.2z
					 M1199,1801.4h525.3c0.4-0.7,0.8-1.5,1.3-2.2h-525.3C1199.8,1800,1199.4,1800.7,1199,1801.4z M1204.9,1699.3h525.3
					c-0.3-0.7-0.6-1.5-0.9-2.2H1204C1204.4,1697.8,1204.6,1698.5,1204.9,1699.3z M1207.6,1781h525.3c0.2-0.7,0.4-1.5,0.6-2.2h-525.3
					C1208,1779.5,1207.8,1780.3,1207.6,1781z M1725.6,1689.1c-0.4-0.8-0.8-1.5-1.3-2.2H1199c0.4,0.7,0.8,1.5,1.3,2.2H1725.6z
					 M1210.4,1719.7h525.3c-0.1-0.7-0.3-1.5-0.4-2.2H1210C1210.2,1718.2,1210.3,1719,1210.4,1719.7z M1208.2,1709.5h525.3
					c-0.2-0.7-0.4-1.5-0.6-2.2h-525.3C1207.8,1708,1208,1708.7,1208.2,1709.5z M1210,1770.8h525.3c0.1-0.7,0.3-1.5,0.4-2.2h-525.3
					C1210.3,1769.3,1210.2,1770.1,1210,1770.8z M1211.8,1729.9h525.3c-0.1-0.7-0.2-1.5-0.3-2.2h-525.3
					C1211.7,1728.4,1211.7,1729.2,1211.8,1729.9z M1211.6,1760.6h525.3c0.1-0.7,0.2-1.5,0.3-2.2h-525.3
					C1211.7,1759.1,1211.7,1759.8,1211.6,1760.6z M1212.4,1750.4h525.3c0-0.7,0.1-1.5,0.1-2.2h-525.3
					C1212.4,1748.9,1212.4,1749.6,1212.4,1750.4z M1212.4,1740.1h525.3c0-0.7,0-1.5-0.1-2.2h-525.3
					C1212.4,1738.7,1212.4,1739.4,1212.4,1740.1z"></path><linearGradient id="A" x1="1383.8" x2="1383.8" y1="495.085" y2="413.892" gradientTransform="matrix(1 0 0 -1 0 2340)" gradientUnits="userSpaceOnUse"><stop offset="0" stop-color="#585fea" class="stopColor58b8ea svgShape"></stop><stop offset="1" stop-color="#585fea" class="stopColor58b8ea svgShape"></stop></linearGradient><path fill="url(#A)" d="M1642.9,1843.2h-16.4h-501.8c-9.6,0-17.3,7.8-17.3,17.3v48.7c0,9.6,7.8,17.3,17.3,17.3h501.8h16.4
				c9.6,0,17.3-7.8,17.3-17.3v-48.7C1660.2,1851,1652.4,1843.2,1642.9,1843.2z"></path><linearGradient id="B" x1="1643.35" x2="1643.35" y1="495.341" y2="414.532" gradientTransform="matrix(1 0 0 -1 0 2340)" gradientUnits="userSpaceOnUse"><stop offset="0" stop-color="#464ee8" class="stopColor46b1e8 svgShape"></stop><stop offset="1" stop-color="#2d36e5" class="stopColor2da7e5 svgShape"></stop></linearGradient><path fill="url(#B)" d="M1642.9,1843.2h-16.4c9.6,0,17.3,7.8,17.3,17.3v48.7c0,9.6-7.8,17.3-17.3,17.3h16.4
				c9.6,0,17.3-7.8,17.3-17.3v-48.7C1660.2,1851,1652.4,1843.2,1642.9,1843.2z"></path></g><g fill="#000000" class="color000000 svgShape"><linearGradient id="C" x1="840.85" x2="840.85" y1="987.979" y2="1036.905" gradientTransform="matrix(1 0 0 -1 0 2340)" gradientUnits="userSpaceOnUse"><stop offset="0" stop-color="#000343" class="stopColor000043 svgShape"></stop><stop offset="1" stop-color="#00045c" class="stopColor00005c svgShape"></stop></linearGradient><path fill="url(#C)" d="M970.5,1353.2h-30v-49.3c0-6-4.9-10.8-10.8-10.8H752c-6,0-10.8,4.9-10.8,10.8v49.3h-30v-49.3
					c0-22.5,18.3-40.8,40.8-40.8h177.6c22.5,0,40.8,18.3,40.8,40.8v49.3H970.5z"></path><path fill="#5e64e5" d="M907.4,1253.5h-133c-5.3,0-9.6,4.3-9.6,9.6v30c0,5.3,4.3,9.6,9.6,9.6h133c5.3,0,9.6-4.3,9.6-9.6v-30
					C916.9,1257.8,912.7,1253.5,907.4,1253.5z" class="colore55ebf svgShape"></path><g fill="#000000" class="color000000 svgShape"><linearGradient id="D" x1="595.2" x2="595.2" y1="987.851" y2="1014.747" gradientTransform="matrix(1 0 0 -1 0 2340)" gradientUnits="userSpaceOnUse"><stop offset="0" stop-color="#000343" class="stopColor000043 svgShape"></stop><stop offset="1" stop-color="#00045c" class="stopColor00005c svgShape"></stop></linearGradient><path fill="url(#D)" d="M660.8,1353.2v-20.5c0-5-4.1-9.1-9.1-9.1H539.3c-5.3,0-9.7,4.4-9.7,9.7v19.9H660.8z"></path><linearGradient id="E" x1="840.85" x2="840.85" y1="661.298" y2="465.043" gradientTransform="matrix(1 0 0 -1 0 2250)" gradientUnits="userSpaceOnUse"><stop offset="0" stop-color="#4950e2" class="stopColore249b7 svgShape"></stop><stop offset=".198" stop-color="#4f56e3" class="stopColore34fb9 svgShape"></stop><stop offset=".429" stop-color="#5e64e5" class="stopColore55ebf svgShape"></stop></linearGradient><path fill="url(#E)" d="M447.5,1925.7c0,13.4,10.8,24.2,24.2,24.2H1210c13.4,0,24.2-10.8,24.2-24.2v-269.5H447.5V1925.7z"></path><path fill="#ffffff" d="M643.6,1688.7c0,3-2.5,5.5-5.5,5.5h-85.9c-3,0-5.5-2.5-5.5-5.5v-32.5l0,0h96.8v32.5H643.6z" enable-background="new" opacity=".5" class="colorffffff svgShape"></path><linearGradient id="F" x1="643.55" x2="643.55" y1="1671.809" y2="1781.08" gradientUnits="userSpaceOnUse"><stop offset="0" stop-color="#2b33da" class="stopColorda2bac svgShape"></stop><stop offset="1" stop-color="#2b33da" stop-opacity="0" class="stopColorda2bac svgShape"></stop></linearGradient><path fill="url(#F)" d="M643.6,1656.2v32.5c0,3-2.5,5.5-5.5,5.5h-4.6v95.9h10v-86.9c5.9-2.2,10.1-7.9,10.1-14.5v-32.5H643.6z"></path><linearGradient id="G" x1="546.85" x2="546.85" y1="1671.809" y2="1781.08" gradientUnits="userSpaceOnUse"><stop offset="0" stop-color="#2b33da" class="stopColorda2bac svgShape"></stop><stop offset="1" stop-color="#2b33da" stop-opacity="0" class="stopColorda2bac svgShape"></stop></linearGradient><path fill="url(#G)" d="M546.8,1688.7v-32.5l0,0h-10v32.5c0,6.6,4.2,12.3,10.1,14.5v86.9h10v-95.9h-4.6
					C549.3,1694.2,546.8,1691.7,546.8,1688.7z"></path><linearGradient id="H" x1="1134.85" x2="1134.85" y1="1671.809" y2="1781.08" gradientUnits="userSpaceOnUse"><stop offset="0" stop-color="#2b33da" class="stopColorda2bac svgShape"></stop><stop offset="1" stop-color="#2b33da" stop-opacity="0" class="stopColorda2bac svgShape"></stop></linearGradient><path fill="url(#H)" d="M1134.9,1656.2v32.5c0,3-2.5,5.5-5.5,5.5h-4.6v95.9h10v-86.9c5.9-2.2,10.1-7.9,10.1-14.5v-32.5H1134.9z"></path><linearGradient id="I" x1="1038.15" x2="1038.15" y1="1671.809" y2="1781.08" gradientUnits="userSpaceOnUse"><stop offset="0" stop-color="#2b33da" class="stopColorda2bac svgShape"></stop><stop offset="1" stop-color="#2b33da" stop-opacity="0" class="stopColorda2bac svgShape"></stop></linearGradient><path fill="url(#I)" d="M1038.1,1688.7v-32.5l0,0h-10v32.5c0,6.6,4.2,12.3,10.1,14.5v86.9h10v-95.9h-4.6
					C1040.6,1694.2,1038.1,1691.7,1038.1,1688.7z"></path><path fill="#00045c" d="M556.8,1694.2v94c0,21.1,17.3,38.4,38.4,38.4c21.1,0,38.4-17.3,38.4-38.4v-94H556.8z M595.2,1793
					c-2.6,0-4.8-2.1-4.8-4.8c0-2.6,2.2-4.8,4.8-4.8s4.8,2.1,4.8,4.8C600,1790.8,597.9,1793,595.2,1793z M595.2,1756.5
					c-2.6,0-4.8-2.1-4.8-4.8c0-2.7,2.2-4.8,4.8-4.8s4.8,2.1,4.8,4.8S597.9,1756.5,595.2,1756.5z M595.2,1720.1
					c-2.6,0-4.8-2.1-4.8-4.8c0-2.6,2.2-4.8,4.8-4.8s4.8,2.1,4.8,4.8S597.9,1720.1,595.2,1720.1z" class="color00005c svgShape"></path><linearGradient id="J" x1="1086.5" x2="1086.5" y1="987.851" y2="1014.747" gradientTransform="matrix(1 0 0 -1 0 2340)" gradientUnits="userSpaceOnUse"><stop offset="0" stop-color="#000343" class="stopColor000043 svgShape"></stop><stop offset="1" stop-color="#00045c" class="stopColor00005c svgShape"></stop></linearGradient><path fill="url(#J)" d="M1152.1,1353.2v-20.5c0-5-4.1-9.1-9.1-9.1h-112.4c-5.3,0-9.7,4.4-9.7,9.7v19.9H1152.1z"></path><path fill="#ffffff" d="M1134.9,1688.7c0,3-2.5,5.5-5.5,5.5h-85.9c-3,0-5.5-2.5-5.5-5.5v-32.5l0,0h96.8L1134.9,1688.7
						L1134.9,1688.7z" enable-background="new" opacity=".5" class="colorffffff svgShape"></path><path fill="#00045c" d="M1048.2,1694.2v94c0,21.1,17.3,38.4,38.4,38.4s38.4-17.3,38.4-38.4v-94H1048.2z M1086.5,1793
						c-2.6,0-4.8-2.1-4.8-4.8c0-2.6,2.2-4.8,4.8-4.8c2.6,0,4.8,2.1,4.8,4.8C1091.3,1790.8,1089.2,1793,1086.5,1793z M1086.5,1756.5
						c-2.6,0-4.8-2.1-4.8-4.8c0-2.7,2.2-4.8,4.8-4.8c2.6,0,4.8,2.1,4.8,4.8S1089.2,1756.5,1086.5,1756.5z M1086.5,1720.1
						c-2.6,0-4.8-2.1-4.8-4.8c0-2.6,2.2-4.8,4.8-4.8c2.6,0,4.8,2.1,4.8,4.8S1089.2,1720.1,1086.5,1720.1z" class="color00005c svgShape"></path><linearGradient id="K" x1="840.85" x2="840.85" y1="698.511" y2="974.356" gradientTransform="matrix(1 0 0 -1 0 2340)" gradientUnits="userSpaceOnUse"><stop offset="0" stop-color="#000347" class="stopColor000047 svgShape"></stop><stop offset="1" stop-color="#00045c" class="stopColor00005c svgShape"></stop></linearGradient><path fill="url(#K)" d="M1259.2,1633.7v-231.3c0-27.2-22-49.2-49.2-49.2H471.7c-27.2,0-49.2,22-49.2,49.2v231.3
					c0,12.4,10.1,22.5,22.5,22.5h791.6C1249.1,1656.2,1259.2,1646.1,1259.2,1633.7z"></path></g></g><g fill="#000000" class="color000000 svgShape"><linearGradient id="L" x1="714.447" x2="417.113" y1="439.4" y2="439.4" gradientTransform="matrix(1 0 0 -1 0 2340)" gradientUnits="userSpaceOnUse"><stop offset="0" stop-color="#00022a" class="stopColor00002a svgShape"></stop><stop offset=".548" stop-color="#000348" class="stopColor000048 svgShape"></stop><stop offset="1" stop-color="#00045c" class="stopColor00005c svgShape"></stop></linearGradient><path fill="url(#L)" d="M327.1,1885.6c-0.7,1.1-1.1,2.4-1.1,3.6v22.9c0,1.3,0.4,2.6,1.1,3.6c12.8,19.8,48.8,34.1,78.6,34.1h313.1
				v-98.4H405.7C375.9,1851.5,340,1865.8,327.1,1885.6z"></path><linearGradient id="M" x1="743.681" x2="1030.915" y1="439.25" y2="439.25" gradientTransform="matrix(1 0 0 -1 0 2340)" gradientUnits="userSpaceOnUse"><stop offset="0" stop-color="#00022a" class="stopColor00002a svgShape"></stop><stop offset=".548" stop-color="#000348" class="stopColor000048 svgShape"></stop><stop offset="1" stop-color="#00045c" class="stopColor00005c svgShape"></stop></linearGradient><path fill="url(#M)" d="M1149.5,1869.9c0-10.1-8.3-18.4-18.4-18.4h-4.2l0,0H742.1v26.9l0,0v70.6v1H1107l0,0h24.1
				c10.1,0,18.4-8.3,18.4-18.4V1869.9z"></path><linearGradient id="N" x1="730.45" x2="730.45" y1="486.915" y2="391.886" gradientTransform="matrix(1 0 0 -1 0 2340)" gradientUnits="userSpaceOnUse"><stop offset="0" stop-color="#b4b7f4" class="stopColorf4b4e6 svgShape"></stop><stop offset=".497" stop-color="#c1c3f6" class="stopColorf6c1ea svgShape"></stop><stop offset="1" stop-color="#b3b6f4" class="stopColorf4b3e6 svgShape"></stop></linearGradient><rect width="23.3" height="98.4" x="718.8" y="1851.5" fill="url(#N)"></rect><linearGradient id="O" x1="1117.979" x2="811.371" y1="439.4" y2="439.4" gradientTransform="matrix(1 0 0 -1 0 2340)" gradientUnits="userSpaceOnUse"><stop offset="0" stop-color="#abaef4" class="stopColorf4abe2 svgShape"></stop><stop offset=".996" stop-color="#bec1f6" class="stopColorf6bee8 svgShape"></stop></linearGradient><path fill="url(#O)" d="M1107.9,1901.4H814.2c-4.3,0-7.9-3.5-7.9-7.9v6.3c0,4.3,3.5,7.9,7.9,7.9h293.7c4.3,0,7.9-3.5,7.9-7.9v-6.3
				C1115.8,1897.9,1112.3,1901.4,1107.9,1901.4z"></path><linearGradient id="P" x1="1090.55" x2="1090.55" y1="431.67" y2="411.08" gradientTransform="matrix(1 0 0 -1 0 2340)" gradientUnits="userSpaceOnUse"><stop offset="0"></stop><stop offset=".514" stop-color="#00011a" class="stopColor00001a svgShape"></stop><stop offset="1" stop-color="#00022e" class="stopColor00002e svgShape"></stop></linearGradient><path fill="url(#P)" d="M1075.6,1907.7v17.5c0,2.6,2.1,4.7,4.7,4.7h20.5c2.6,0,4.7-2.1,4.7-4.7v-17.5H1075.6z"></path><linearGradient id="Q" x1="1206.957" x2="1151.501" y1="439.35" y2="439.35" gradientTransform="matrix(1 0 0 -1 0 2340)" gradientUnits="userSpaceOnUse"><stop offset="0" stop-color="#c9cbf7" class="stopColorf7c9ec svgShape"></stop><stop offset="1" stop-color="#b9bcf5" class="stopColorf5b9e7 svgShape"></stop></linearGradient><path fill="url(#Q)" d="M1207.6,1879.8c0-5-4.1-9.1-9.1-9.1h-48.9v59.9h48.9c5,0,9.1-4.1,9.1-9.1V1879.8z"></path><linearGradient id="R" x1="300.83" x2="325.151" y1="439.3" y2="439.3" gradientTransform="matrix(1 0 0 -1 0 2340)" gradientUnits="userSpaceOnUse"><stop offset="0" stop-color="#404385" class="stopColor404085 svgShape"></stop><stop offset=".296" stop-color="#40437b" class="stopColor40407b svgShape"></stop><stop offset="1" stop-color="#404267" class="stopColor404067 svgShape"></stop></linearGradient><path fill="url(#R)" d="M326.1,1889.5h-15.6c-5.7,0-10.4,4.7-10.4,10.4v1.6c0,5.7,4.7,10.4,10.4,10.4h15.6V1889.5z"></path><linearGradient id="S" x1="1112.872" x2="877.572" y1="459.954" y2="459.954" gradientTransform="matrix(1 0 0 -1 0 2340)" gradientUnits="userSpaceOnUse"><stop offset="0" stop-color="#b9bcf5" class="stopColorf5b9e7 svgShape"></stop><stop offset=".996" stop-color="#c9cbf7" class="stopColorf7c9ec svgShape"></stop></linearGradient><path fill="url(#S)" d="M1107.9,1858.6H814.2c-4.3,0-7.9,3.5-7.9,7.9v27.1c0,4.3,3.5,7.9,7.9,7.9h293.7c4.3,0,7.9-3.5,7.9-7.9
				v-27.1C1115.8,1862.1,1112.3,1858.6,1107.9,1858.6z"></path></g><g fill="#000000" class="color000000 svgShape"><path fill="#585fea" d="M1241.7,555.8H886.5c-9.6,0-17.5,7.9-17.5,17.5V875c0,9.6,7.9,17.5,17.5,17.5h355.2
				c9.6,0,17.5-7.9,17.5-17.5V573.3C1259.2,563.7,1251.3,555.8,1241.7,555.8z" class="color58b8ea svgShape"></path><linearGradient id="T" x1="1142.75" x2="1142.75" y1="1388.776" y2="1446.179" gradientTransform="matrix(1 0 0 -1 0 2340)" gradientUnits="userSpaceOnUse"><stop offset="0" stop-color="#3038e5" class="stopColor30a8e5 svgShape"></stop><stop offset="1" stop-color="#585fea" class="stopColor58b8ea svgShape"></stop></linearGradient><path fill="url(#T)" d="M1102.5,891.4l69.4,60.5c6.1,6.1,11.1,4,11.1-4.6v-55.9H1102.5z"></path><path fill="#00045c" d="M910.3,682.3l-5.2,5.2c-0.7,0.7-0.7,1.8,0,2.5l15.8,15.8c0.7,0.7,1.8,0.7,2.5,0l5.2-5.2
						c0.7-0.7,0.7-1.8,0-2.5l-15.8-15.8C912.2,681.6,911,681.6,910.3,682.3z" class="color00005c svgShape"></path><path fill="#00045c" d="M915.8,700.6l5.2,5.2c0.7,0.7,1.8,0.7,2.5,0l30.9-30.9c0.7-0.7,0.7-1.8,0-2.5l-5.2-5.2
						c-0.7-0.7-1.8-0.7-2.5,0l-30.9,30.9C915.1,698.8,915.1,699.9,915.8,700.6z" class="color00005c svgShape"></path><path fill="#acaff5" d="M974.5,677.6h216.6c1,0,1.8-0.8,1.8-1.8v-7.3c0-1-0.8-1.8-1.8-1.8H974.5c-1,0-1.8,0.8-1.8,1.8v7.3
					C972.7,676.8,973.5,677.6,974.5,677.6z M974.5,706.3h27c1,0,1.8-0.8,1.8-1.8v-7.3c0-1-0.8-1.8-1.8-1.8h-27c-1,0-1.8,0.8-1.8,1.8
					v7.3C972.7,705.5,973.5,706.3,974.5,706.3z M1016,706.3h165.3c1,0,1.8-0.8,1.8-1.8v-7.3c0-1-0.8-1.8-1.8-1.8H1016
					c-1,0-1.8,0.8-1.8,1.8v7.3C1014.2,705.5,1015,706.3,1016,706.3z M1203.8,668.5v7.3c0,1,0.8,1.8,1.8,1.8h16.2
					c1,0,1.8-0.8,1.8-1.8v-7.3c0-1-0.8-1.8-1.8-1.8h-16.2C1204.6,666.7,1203.8,667.5,1203.8,668.5z" class="coloracdcf5 svgShape"></path><path fill="#00045c" d="M910.3,757.5l-5.2,5.2c-0.7,0.7-0.7,1.8,0,2.5l15.8,15.8c0.7,0.7,1.8,0.7,2.5,0l5.2-5.2
						c0.7-0.7,0.7-1.8,0-2.5l-15.8-15.8C912.2,756.8,911,756.8,910.3,757.5z" class="color00005c svgShape"></path><path fill="#00045c" d="M915.8,775.9l5.2,5.2c0.7,0.7,1.8,0.7,2.5,0l30.9-30.9c0.7-0.7,0.7-1.8,0-2.5l-5.2-5.2
						c-0.7-0.7-1.8-0.7-2.5,0l-30.9,30.9C915.1,774.1,915.1,775.2,915.8,775.9z" class="color00005c svgShape"></path><path fill="#acaff5" d="M974.5,752.9h177.4c1,0,1.8-0.8,1.8-1.8v-7.3c0-1-0.8-1.8-1.8-1.8H974.5c-1,0-1.8,0.8-1.8,1.8v7.3
					C972.7,752.1,973.5,752.9,974.5,752.9z M974.5,781.6h27c1,0,1.8-0.8,1.8-1.8v-7.3c0-1-0.8-1.8-1.8-1.8h-27c-1,0-1.8,0.8-1.8,1.8
					v7.3C972.7,780.8,973.5,781.6,974.5,781.6z M1016,781.6h165.3c1,0,1.8-0.8,1.8-1.8v-7.3c0-1-0.8-1.8-1.8-1.8H1016
					c-1,0-1.8,0.8-1.8,1.8v7.3C1014.2,780.8,1015,781.6,1016,781.6z M1164.6,743.7v7.3c0,1,0.8,1.8,1.8,1.8h55.4
					c1,0,1.8-0.8,1.8-1.8v-7.3c0-1-0.8-1.8-1.8-1.8h-55.4C1165.4,742,1164.6,742.8,1164.6,743.7z" class="coloracdcf5 svgShape"></path><g fill="#000000" class="color000000 svgShape"><path fill="#00045c" d="M910.3,832.8l-5.2,5.2c-0.7,0.7-0.7,1.8,0,2.5l15.8,15.8c0.7,0.7,1.8,0.7,2.5,0l5.2-5.2
						c0.7-0.7,0.7-1.8,0-2.5l-15.8-15.8C912.2,832.1,911,832.1,910.3,832.8z" class="color00005c svgShape"></path><path fill="#00045c" d="M915.8,851.1l5.2,5.2c0.7,0.7,1.8,0.7,2.5,0l30.9-30.9c0.7-0.7,0.7-1.8,0-2.5l-5.2-5.2
						c-0.7-0.7-1.8-0.7-2.5,0l-30.9,30.9C915.1,849.3,915.1,850.4,915.8,851.1z" class="color00005c svgShape"></path><path fill="#acaff5" d="M974.5,828.1h216.6c1,0,1.8-0.8,1.8-1.8V819c0-1-0.8-1.8-1.8-1.8H974.5c-1,0-1.8,0.8-1.8,1.8v7.3
					C972.7,827.3,973.5,828.1,974.5,828.1z M974.5,856.8h76.5c1,0,1.8-0.8,1.8-1.8v-7.3c0-1-0.8-1.8-1.8-1.8h-76.5
					c-1,0-1.8,0.8-1.8,1.8v7.3C972.7,856.1,973.5,856.8,974.5,856.8z M1065.4,856.8h115.9c1,0,1.8-0.8,1.8-1.8v-7.3
					c0-1-0.8-1.8-1.8-1.8h-115.9c-1,0-1.8,0.8-1.8,1.8v7.3C1063.7,856.1,1064.4,856.8,1065.4,856.8z M1203.8,819v7.3
					c0,1,0.8,1.8,1.8,1.8h16.2c1,0,1.8-0.8,1.8-1.8V819c0-1-0.8-1.8-1.8-1.8h-16.2C1204.6,817.2,1203.8,818,1203.8,819z" class="coloracdcf5 svgShape"></path></g><g fill="#000000" class="color000000 svgShape"><path fill="#00045c" d="M910.3,607l-5.2,5.2c-0.7,0.7-0.7,1.8,0,2.5l15.8,15.8c0.7,0.7,1.8,0.7,2.5,0l5.2-5.2
						c0.7-0.7,0.7-1.8,0-2.5L912.9,607C912.2,606.3,911,606.3,910.3,607z" class="color00005c svgShape"></path><path fill="#00045c" d="M915.8,625.4l5.2,5.2c0.7,0.7,1.8,0.7,2.5,0l30.9-30.9c0.7-0.7,0.7-1.8,0-2.5l-5.2-5.2
						c-0.7-0.7-1.8-0.7-2.5,0l-30.9,30.9C915.1,623.5,915.1,624.7,915.8,625.4z" class="color00005c svgShape"></path><path fill="#acaff5" d="M974.5,602.4h216.6c1,0,1.8-0.8,1.8-1.8v-7.3c0-1-0.8-1.8-1.8-1.8H974.5c-1,0-1.8,0.8-1.8,1.8v7.3
					C972.7,601.6,973.5,602.4,974.5,602.4z M974.5,631.1H1077c1,0,1.8-0.8,1.8-1.8V622c0-1-0.8-1.8-1.8-1.8H974.5
					c-1,0-1.8,0.8-1.8,1.8v7.3C972.7,630.3,973.5,631.1,974.5,631.1z M1091.5,631.1h89.8c1,0,1.8-0.8,1.8-1.8V622
					c0-1-0.8-1.8-1.8-1.8h-89.8c-1,0-1.8,0.8-1.8,1.8v7.3C1089.7,630.3,1090.5,631.1,1091.5,631.1z M1203.8,593.2v7.3
					c0,1,0.8,1.8,1.8,1.8h16.2c1,0,1.8-0.8,1.8-1.8v-7.3c0-1-0.8-1.8-1.8-1.8h-16.2C1204.6,591.5,1203.8,592.2,1203.8,593.2z" class="coloracdcf5 svgShape"></path></g></g><g fill="#000000" class="color000000 svgShape"><path fill="#585fea" d="M2134.5,887.2h355.2c9.6,0,17.5,7.9,17.5,17.5v226.5c0,9.6-7.9,17.5-17.5,17.5h-355.2
				c-9.6,0-17.5-7.9-17.5-17.5V904.7C2117,895.1,2124.9,887.2,2134.5,887.2z" class="color58b8ea svgShape"></path><linearGradient id="U" x1="2233.45" x2="2233.45" y1="1130.056" y2="1189.515" gradientTransform="matrix(1 0 0 -1 0 2340)" gradientUnits="userSpaceOnUse"><stop offset="0" stop-color="#3038e5" class="stopColor30a8e5 svgShape"></stop><stop offset="1" stop-color="#585fea" class="stopColor58b8ea svgShape"></stop></linearGradient><path fill="url(#U)" d="M2273.7,1147.8l-69.4,60.5c-6.1,6.1-11.1,4-11.1-4.6v-55.9H2273.7z"></path><path fill="#b8bbf2" d="M2152.7,922.8V1113h318.9V922.8H2152.7z M2287.9,1002.5h85.8v30.8h-85.8V1002.5z M2281.9,1033.3h-85.8v-30.8
				h85.8V1033.3z M2379.7,1002.5h85.9v30.8h-85.8L2379.7,1002.5z M2379.7,996.5v-30.8h85.9v30.8H2379.7z M2373.7,996.5h-85.8v-30.8
				h85.8V996.5z M2287.9,959.7v-30.8h85.8v30.8H2287.9z M2281.9,959.7h-85.8v-30.9h85.8V959.7z M2281.9,965.7v30.8h-85.8v-30.8
				H2281.9z M2190.1,996.5h-31.5v-30.8h31.4L2190.1,996.5z M2190.1,1002.5v30.8h-31.5v-30.8L2190.1,1002.5z M2190.1,1039.4v30.8
				h-31.5v-30.8H2190.1z M2196.1,1039.4h85.8v30.8h-85.8V1039.4z M2282,1076.2v30.8h-85.8v-30.8H2282z M2288,1076.2h85.8v30.8H2288
				V1076.2z M2288,1070.2v-30.8h85.8v30.8H2288z M2379.7,1039.3h85.8v30.8h-85.8V1039.3z M2465.6,959.6h-85.9v-30.8h85.9V959.6z
				 M2190.1,928.8v30.9h-31.4v-30.9H2190.1z M2158.7,1076.2h31.5v30.8h-31.5V1076.2z M2379.8,1107v-30.8h85.8v30.9L2379.8,1107
				L2379.8,1107z" class="colorb8e0f2 svgShape"></path><path fill="#2c35e5" d="M2190.1,928.8h-31.4v30.9h31.4V928.8z M2196.1,928.8v30.9h85.8v-30.8h-85.8V928.8z M2190.1,965.7h-31.4
				v30.8h31.5L2190.1,965.7z M2287.9,928.8v30.8h85.8v-30.8H2287.9z M2379.7,928.8v30.8h85.9v-30.8H2379.7z M2158.7,1107h31.5v-30.8
				h-31.5V1107z M2158.7,1002.6v30.8h31.5v-30.8L2158.7,1002.6z M2158.7,1070.2h31.5v-30.8h-31.5V1070.2z" class="color2ca5e5 svgShape"></path></g></svg>